# Blender 4.1.1
# www.blender.org
mtllib HelicopterPropeller1.mtl
o Propeller
v -0.018785 0.043066 -0.137821
v -0.017897 1.427463 -0.135834
v -0.018785 0.043066 0.133722
v -0.017595 1.427091 0.135708
v 0.018785 0.043066 0.133722
v 0.019976 1.427063 0.135666
v 0.018785 0.043066 -0.137821
v 0.019674 1.427436 -0.135876
v -0.018786 0.277479 -0.096596
v -0.018786 0.277479 0.092498
v 0.018785 0.277479 0.092498
v 0.018785 0.277479 -0.096596
v -0.010657 1.876569 -0.077918
v -0.010657 1.876569 0.073819
v 0.010657 1.876569 0.073819
v 0.010657 1.876569 -0.077918
v -0.107692 0.043066 -0.137821
v -0.107692 0.043066 0.133722
v -0.107692 0.277479 -0.096596
v -0.107692 0.277479 0.092498
v -0.018785 0.120874 -0.080052
v -0.017022 1.180136 0.811328
v -0.018785 -0.053671 0.127962
v -0.016919 1.005307 1.019103
v 0.018785 -0.053671 0.127962
v 0.020652 1.005280 1.019061
v 0.018785 0.120874 -0.080052
v 0.020549 1.180109 0.811286
v -0.018786 0.273946 0.102205
v -0.018785 0.152399 0.247060
v 0.018785 0.152399 0.247060
v 0.018785 0.273946 0.102205
v -0.010657 1.486913 1.144389
v -0.010657 1.389379 1.260626
v 0.010657 1.389379 1.260626
v 0.010657 1.486913 1.144389
v -0.107692 0.120874 -0.080052
v -0.107692 -0.053671 0.127962
v -0.107692 0.273946 0.102205
v -0.107692 0.152399 0.247060
v -0.018785 0.143345 0.014215
v -0.016976 0.381849 1.377919
v -0.018785 -0.124072 0.061368
v -0.017121 0.114367 1.424705
v 0.018785 -0.124072 0.061368
v 0.020450 0.114339 1.424663
v 0.018785 0.143345 0.014215
v 0.020595 0.381821 1.377877
v -0.018785 0.143453 0.252225
v -0.018785 -0.042769 0.285061
v 0.018785 -0.042769 0.285061
v 0.018785 0.143453 0.252225
v -0.010657 0.402736 1.830264
v -0.010657 0.253305 1.856613
v 0.010657 0.253305 1.856613
v 0.010657 0.402736 1.830264
v -0.107692 0.143345 0.014215
v -0.107692 -0.124072 0.061368
v -0.107692 0.143453 0.252225
v -0.107692 -0.042769 0.285061
v -0.018785 0.099965 0.100871
v -0.017781 -0.593872 1.298823
v -0.018785 -0.135197 -0.034900
v -0.018106 -0.828849 1.162730
v 0.018785 -0.135197 -0.034900
v 0.019465 -0.828876 1.162688
v 0.018785 0.099965 0.100871
v 0.019790 -0.593900 1.298781
v -0.018785 -0.052942 0.283267
v -0.018785 -0.216703 0.188720
v 0.018786 -0.216703 0.188720
v 0.018785 -0.052942 0.283267
v -0.010657 -0.868664 1.658780
v -0.010657 -1.000071 1.582912
v 0.010657 -1.000071 1.582912
v 0.010657 -0.868664 1.658780
v -0.107692 0.099965 0.100871
v -0.107692 -0.135197 -0.034900
v -0.107692 -0.052942 0.283267
v -0.107692 -0.216703 0.188720
v -0.018785 0.011033 0.139371
v -0.019061 -1.290476 0.611051
v -0.018785 -0.081840 -0.115796
v -0.019414 -1.382999 0.355758
v 0.018785 -0.081840 -0.115796
v 0.018157 -1.383027 0.355716
v 0.018785 0.011033 0.139371
v 0.018510 -1.290503 0.611009
v -0.018785 -0.223343 0.180806
v -0.018785 -0.288017 0.003116
v 0.018786 -0.288017 0.003116
v 0.018786 -0.223343 0.180806
v -0.010657 -1.732384 0.710175
v -0.010657 -1.784281 0.567589
v 0.010657 -1.784281 0.567589
v 0.010657 -1.732384 0.710175
v -0.107692 0.011033 0.139371
v -0.107692 -0.081840 -0.115796
v -0.107692 -0.223343 0.180806
v -0.107692 -0.288017 0.003116
v -0.018785 -0.081840 0.111698
v -0.020216 -1.382013 -0.363581
v -0.018785 0.011033 -0.143469
v -0.020432 -1.288790 -0.618620
v 0.018785 0.011033 -0.143469
v 0.017139 -1.288818 -0.618662
v 0.018785 -0.081840 0.111698
v 0.017355 -1.382041 -0.363622
v -0.018785 -0.288017 -0.007214
v -0.018785 -0.223343 -0.184905
v 0.018785 -0.223343 -0.184905
v 0.018786 -0.288017 -0.007214
v -0.010657 -1.784281 -0.571688
v -0.010657 -1.732384 -0.714273
v 0.010657 -1.732384 -0.714273
v 0.010657 -1.784281 -0.571688
v -0.107692 -0.081840 0.111698
v -0.107692 0.011033 -0.143469
v -0.107692 -0.288017 -0.007214
v -0.107692 -0.223343 -0.184905
v -0.018785 -0.135197 0.030802
v -0.020706 -0.825653 -1.169032
v -0.018785 0.099965 -0.104970
v -0.020684 -0.590304 -1.304481
v 0.018785 0.099965 -0.104970
v 0.016887 -0.590332 -1.304523
v 0.018785 -0.135197 0.030802
v 0.016865 -0.825681 -1.169074
v -0.018785 -0.216703 -0.192818
v -0.018785 -0.052942 -0.287365
v 0.018785 -0.052942 -0.287365
v 0.018785 -0.216703 -0.192818
v -0.010657 -1.000071 -1.587010
v -0.010657 -0.868664 -1.662878
v 0.010657 -0.868664 -1.662878
v 0.010657 -1.000071 -1.587010
v -0.107692 -0.135197 0.030802
v -0.107692 0.099965 -0.104970
v -0.107692 -0.216703 -0.192818
v -0.107692 -0.052942 -0.287365
v -0.018785 -0.124072 -0.065466
v -0.020302 0.118277 -1.428422
v -0.018785 0.143345 -0.018313
v -0.020052 0.385630 -1.380903
v 0.018785 0.143345 -0.018313
v 0.017519 0.385602 -1.380945
v 0.018785 -0.124072 -0.065466
v 0.017269 0.118249 -1.428464
v -0.018785 -0.042769 -0.289159
v -0.018785 0.143452 -0.256323
v 0.018785 0.143452 -0.256323
v 0.018785 -0.042769 -0.289159
v -0.010657 0.253305 -1.860712
v -0.010657 0.402736 -1.834363
v 0.010657 0.402736 -1.834363
v 0.010657 0.253305 -1.860712
v -0.107692 -0.124072 -0.065466
v -0.107692 0.143345 -0.018313
v -0.107692 -0.042769 -0.289159
v -0.107692 0.143452 -0.256323
v -0.018785 -0.053671 -0.132060
v -0.019193 1.008102 -1.020381
v -0.018785 0.120874 0.075954
v -0.018832 1.182361 -0.812128
v 0.018785 0.120874 0.075954
v 0.018739 1.182334 -0.812170
v 0.018785 -0.053671 -0.132060
v 0.018378 1.008075 -1.020423
v -0.018785 0.152399 -0.251158
v -0.018786 0.273946 -0.106304
v 0.018785 0.273946 -0.106304
v 0.018785 0.152399 -0.251158
v -0.010657 1.389379 -1.264724
v -0.010657 1.486913 -1.148488
v 0.010657 1.486913 -1.148488
v 0.010657 1.389379 -1.264724
v -0.107692 -0.053671 -0.132060
v -0.107692 0.120874 0.075954
v -0.107692 0.152399 -0.251158
v -0.107692 0.273946 -0.106304
vn -1.0000 -0.0000 -0.0000
vn -0.0000 0.1732 0.9849
vn 1.0000 -0.0004 -0.0000
vn 1.0000 -0.0008 -0.0007
vn 1.0000 -0.0000 -0.0000
vn -0.0004 -0.0341 -0.9994
vn -0.0011 -0.0341 -0.9994
vn -0.0008 -0.0341 -0.9994
vn -0.0000 1.0000 -0.0000
vn -0.0000 -1.0000 -0.0000
vn -1.0000 0.0010 0.0003
vn -1.0000 0.0008 0.0011
vn -1.0000 0.0009 0.0008
vn 0.0004 -0.0375 0.9993
vn 0.0011 -0.0376 0.9993
vn 0.0008 -0.0376 0.9993
vn 1.0000 -0.0008 -0.0003
vn 1.0000 -0.0010 -0.0011
vn -0.0000 0.1732 -0.9849
vn -0.9999 0.0157 0.0010
vn -0.9999 0.0161 -0.0000
vn -0.9999 0.0160 0.0003
vn 0.0008 0.1364 0.9907
vn -0.0000 0.1364 0.9907
vn 0.0003 0.1364 0.9907
vn 0.9998 0.0203 -0.0008
vn 0.9998 0.0207 -0.0000
vn 0.9998 0.0206 -0.0003
vn -0.0009 0.1279 -0.9918
vn -0.0000 0.1280 -0.9918
vn -0.0001 0.1280 -0.9918
vn -0.0000 -0.5004 0.8658
vn 1.0000 -0.0010 -0.0012
vn 0.0002 0.6163 -0.7875
vn -0.0004 0.6163 -0.7875
vn -0.0005 0.6163 -0.7875
vn -0.0000 0.7660 0.6428
vn -0.0000 -0.7660 -0.6428
vn -1.0000 0.0011 0.0009
vn -0.9999 0.0106 0.0090
vn -1.0000 0.0012 0.0011
vn 0.0003 -0.6711 0.7414
vn 1.0000 -0.0012 -0.0010
vn 1.0000 -0.0010 -0.0013
vn -0.0000 0.7658 -0.6431
vn -0.9999 0.0107 0.0092
vn -0.9999 0.0109 0.0091
vn -0.0000 -0.5323 0.8465
vn 0.0005 -0.5324 0.8465
vn 0.9998 0.0171 0.0142
vn 0.9998 0.0170 0.0143
vn 0.9998 0.0170 0.0145
vn -0.0000 0.7355 -0.6775
vn -0.0002 0.7355 -0.6775
vn -0.0000 -0.9398 0.3416
vn 1.0000 -0.0000 -0.0001
vn 1.0000 -0.0006 -0.0013
vn -0.0000 0.9783 -0.2072
vn 0.0005 0.9783 -0.2072
vn -0.0000 0.1736 0.9848
vn -0.0000 -0.1736 -0.9848
vn -1.0000 0.0003 0.0014
vn -0.9999 0.0026 0.0139
vn -0.0006 -0.9906 0.1366
vn -0.0005 -0.9906 0.1366
vn 1.0000 -0.0007 -0.0014
vn 1.0000 -0.0008 -0.0014
vn -0.0000 1.0000 -0.0005
vn -0.9999 0.0024 0.0139
vn -0.0005 -0.9519 0.3063
vn -0.0000 -0.9520 0.3062
vn -0.0003 -0.9520 0.3063
vn 0.9998 0.0036 0.0216
vn 0.9998 0.0038 0.0214
vn 0.9998 0.0034 0.0217
vn 0.0005 0.9989 -0.0461
vn -0.0000 0.9989 -0.0462
vn 0.0002 0.9989 -0.0462
vn -0.0000 -0.9395 -0.3424
vn 1.0000 -0.0003 -0.0008
vn 0.0004 0.8826 0.4701
vn 0.0012 0.8826 0.4701
vn 0.0009 0.8826 0.4701
vn -0.0000 -0.5000 0.8660
vn -0.0000 0.5000 -0.8660
vn -1.0000 -0.0001 0.0007
vn -1.0000 0.0006 0.0013
vn -1.0000 0.0004 0.0011
vn -0.0003 -0.8467 -0.5321
vn -0.0012 -0.8467 -0.5321
vn -0.0009 -0.8467 -0.5321
vn 1.0000 -0.0000 -0.0009
vn 1.0000 -0.0007 -0.0011
vn -0.0000 0.7663 0.6424
vn -0.9999 -0.0074 0.0146
vn -0.9999 -0.0079 0.0137
vn -0.9999 -0.0077 0.0140
vn -0.0006 -0.9261 -0.3773
vn -0.0000 -0.9261 -0.3774
vn -0.0002 -0.9261 -0.3774
vn 0.9998 -0.0108 0.0169
vn 0.9998 -0.0098 0.0170
vn 0.9998 -0.0103 0.0169
vn 0.0010 0.7949 0.6068
vn -0.0000 0.7949 0.6067
vn 0.0004 0.7949 0.6067
vn -0.0000 -0.4996 -0.8663
vn 1.0000 -0.0001 -0.0000
vn 1.0000 -0.0006 -0.0006
vn 0.0003 0.3739 0.9275
vn 0.0013 0.3739 0.9275
vn 0.0009 0.3739 0.9275
vn -0.0000 -0.9397 0.3420
vn -0.0000 0.9397 -0.3420
vn -1.0000 0.0006 0.0001
vn -1.0000 0.0007 0.0011
vn -1.0000 0.0007 0.0008
vn -0.0004 -0.3065 -0.9519
vn -0.0013 -0.3065 -0.9519
vn -0.0009 -0.3065 -0.9519
vn 1.0000 -0.0004 -0.0003
vn 1.0000 -0.0009 -0.0011
vn -0.0000 0.1741 0.9847
vn -0.9998 -0.0177 0.0076
vn -0.9998 -0.0176 0.0064
vn -0.9998 -0.0176 0.0066
vn -0.0010 -0.4669 -0.8843
vn -0.0000 -0.4668 -0.8843
vn -0.0003 -0.4669 -0.8843
vn 0.9999 -0.0166 0.0048
vn 0.9999 -0.0157 0.0057
vn 0.9999 -0.0158 0.0055
vn 0.0009 0.2189 0.9757
vn -0.0000 0.2190 0.9757
vn 0.0004 0.2189 0.9757
vn -0.0000 0.1741 -0.9847
vn 1.0000 0.0001 -0.0000
vn 1.0000 -0.0010 -0.0009
vn 0.0003 -0.3097 0.9508
vn 0.0008 -0.3098 0.9508
vn 0.0006 -0.3097 0.9508
vn -0.0000 -0.9397 -0.3420
vn -0.0000 0.9397 0.3420
vn -1.0000 0.0012 0.0007
vn -1.0000 0.0009 0.0012
vn -1.0000 0.0010 0.0010
vn -0.0002 0.3770 -0.9262
vn -0.0008 0.3770 -0.9262
vn -0.0005 0.3770 -0.9262
vn 1.0000 -0.0012 -0.0005
vn 0.9999 -0.0136 -0.0052
vn -0.0000 -0.4996 0.8663
vn -0.9998 -0.0202 -0.0071
vn -0.9998 -0.0200 -0.0073
vn -0.9998 -0.0201 -0.0072
vn -0.0007 0.2107 -0.9775
vn -0.0000 0.2108 -0.9775
vn -0.0001 0.2108 -0.9775
vn 0.9999 -0.0136 -0.0057
vn 0.9999 -0.0135 -0.0049
vn 0.0006 -0.4595 0.8882
vn -0.0000 -0.4594 0.8882
vn 0.0002 -0.4594 0.8882
vn -0.0000 0.7663 -0.6424
vn 1.0000 -0.0000 0.0001
vn 1.0000 -0.0009 -0.0014
vn -0.0000 -0.8485 0.5293
vn -0.0000 -0.5000 -0.8660
vn -0.0000 0.5000 0.8660
vn -1.0000 0.0009 0.0014
vn -1.0000 0.0008 0.0014
vn 0.0001 0.8842 -0.4671
vn -0.0000 0.8842 -0.4671
vn 1.0000 -0.0008 -0.0013
vn 0.9999 -0.0069 -0.0118
vn -0.0000 -0.9395 0.3424
vn -0.9998 -0.0111 -0.0194
vn -0.9997 -0.0112 -0.0194
vn -0.0000 0.7898 -0.6134
vn -0.0001 0.7898 -0.6134
vn 0.9999 -0.0069 -0.0120
vn -0.0000 -0.9229 0.3851
vn 0.0001 -0.9229 0.3851
vn -0.0000 1.0000 0.0005
vn 1.0000 -0.0005 -0.0012
vn -0.0003 -0.9902 -0.1400
vn -0.0009 -0.9902 -0.1399
vn -0.0005 -0.9902 -0.1400
vn -0.0000 0.1736 -0.9848
vn -0.0000 -0.1736 0.9848
vn -1.0000 -0.0000 0.0011
vn -1.0000 0.0007 0.0014
vn -1.0000 0.0004 0.0013
vn 0.0002 0.9776 0.2105
vn 0.0010 0.9776 0.2105
vn 0.0007 0.9776 0.2105
vn 1.0000 -0.0000 -0.0013
vn 1.0000 -0.0007 -0.0013
vn -0.0000 -0.9398 -0.3416
vn -0.9998 0.0045 -0.0206
vn -0.9998 0.0037 -0.0211
vn -0.9998 0.0039 -0.0210
vn 0.0006 0.9993 0.0377
vn -0.0000 0.9993 0.0377
vn 0.0002 0.9993 0.0377
vn 0.9999 0.0018 -0.0148
vn 0.9999 0.0027 -0.0150
vn 0.9999 0.0025 -0.0150
vn -0.0008 -0.9545 -0.2982
vn -0.0000 -0.9545 -0.2982
vn -0.0003 -0.9545 -0.2982
vn -0.0000 0.7658 0.6431
vn 1.0000 0.0001 -0.0001
vn 1.0000 -0.0004 -0.0007
vn -0.0004 -0.6685 -0.7437
vn -0.0013 -0.6686 -0.7437
vn -0.0010 -0.6686 -0.7437
vn -0.0000 0.7660 -0.6428
vn -0.0000 -0.7660 0.6428
vn -1.0000 0.0001 0.0003
vn -1.0000 0.0006 0.0012
vn -1.0000 0.0005 0.0010
vn 0.0004 0.6136 0.7896
vn 0.0013 0.6135 0.7897
vn 0.0010 0.6136 0.7896
vn 1.0000 -0.0000 -0.0004
vn 1.0000 -0.0008 -0.0011
vn -0.0000 -0.5004 -0.8658
vn -0.9998 0.0149 -0.0110
vn -0.9998 0.0146 -0.0122
vn -0.9998 0.0146 -0.0120
vn 0.0008 0.7413 0.6712
vn -0.0000 0.7413 0.6712
vn 0.0004 0.7413 0.6712
vn 0.9998 0.0126 -0.0121
vn 0.9998 0.0138 -0.0116
vn 0.9998 0.0134 -0.0117
vn -0.0009 -0.5395 -0.8420
vn -0.0000 -0.5395 -0.8420
vn -0.0004 -0.5395 -0.8420
vn -0.0000 -0.0341 -0.9994
vn -1.0000 0.0010 -0.0000
vn -0.0000 -0.0375 0.9993
vn -0.9999 0.0156 0.0011
vn 0.0012 0.1363 0.9907
vn 0.9998 0.0202 -0.0011
vn -0.0010 0.1279 -0.9918
vn -0.0000 0.6163 -0.7875
vn -1.0000 0.0012 0.0010
vn -0.0000 -0.6711 0.7414
vn 0.0006 -0.5324 0.8465
vn 0.9998 0.0171 0.0139
vn -0.0000 -0.9906 0.1366
vn -0.0004 -0.9520 0.3063
vn 0.9998 0.0033 0.0218
vn 0.0007 0.9989 -0.0461
vn -0.0000 0.8826 0.4701
vn -1.0000 -0.0003 0.0005
vn -0.0000 -0.8467 -0.5321
vn -0.9999 -0.0072 0.0148
vn -0.0011 -0.9261 -0.3773
vn 0.9998 -0.0111 0.0169
vn 0.0013 0.7949 0.6068
vn -0.0000 0.3739 0.9275
vn -1.0000 0.0005 -0.0002
vn -0.0000 -0.3065 -0.9519
vn -0.9998 -0.0177 0.0078
vn -0.0013 -0.4669 -0.8843
vn 0.9998 -0.0167 0.0047
vn 0.0012 0.2189 0.9757
vn -0.0000 -0.3097 0.9508
vn -1.0000 0.0013 0.0005
vn -0.0000 0.3771 -0.9262
vn -0.9998 -0.0206 -0.0067
vn -0.0009 0.2107 -0.9775
vn 0.0007 -0.4595 0.8882
vn -0.0002 -0.9229 0.3851
vn -0.0000 -0.9902 -0.1400
vn -1.0000 -0.0002 0.0011
vn -0.0000 0.9776 0.2105
vn -0.9998 0.0046 -0.0205
vn 0.0008 0.9993 0.0378
vn 0.9999 0.0017 -0.0148
vn -0.0010 -0.9545 -0.2982
vn -0.0000 -0.6685 -0.7437
vn -0.0000 0.6136 0.7896
vn -0.9998 0.0149 -0.0108
vn 0.0013 0.7412 0.6713
vn 0.9998 0.0125 -0.0122
vn -0.0013 -0.5395 -0.8420
vt 0.784000 0.387565
vt 0.759000 0.387565
vt 0.759000 0.384000
vt 0.784000 0.409000
vt 0.759000 0.409000
vt 0.784000 0.384000
s 1
usemtl Palette
f 20/1/1 19/2/1 17/3/1
f 11/1/2 10/2/2 3/3/2
f 12/1/3 11/2/4 5/3/5
f 2/4/6 8/5/7 12/2/8
f 15/4/9 16/5/9 13/3/9
f 3/4/10 1/5/10 7/3/10
f 4/4/11 2/5/12 9/2/13
f 6/4/14 4/5/15 10/2/16
f 8/4/17 6/5/18 11/2/4
f 7/3/19 1/6/19 9/1/19
f 14/6/20 13/3/21 2/3/22
f 15/4/23 14/6/24 4/6/25
f 16/5/26 15/4/27 6/4/28
f 13/3/29 16/5/30 8/5/31
f 18/6/10 17/3/10 1/3/10
f 20/1/2 18/6/2 3/6/2
f 19/2/9 20/1/9 10/1/9
f 17/3/19 19/2/19 9/2/19
f 40/1/1 39/2/1 37/3/1
f 31/1/32 30/2/32 23/3/32
f 32/1/5 31/2/33 25/3/5
f 22/4/34 28/5/35 32/2/36
f 35/4/37 36/5/37 33/3/37
f 23/4/38 21/5/38 27/3/38
f 24/4/39 22/5/40 29/2/41
f 26/4/42 24/5/42 30/2/42
f 28/4/43 26/5/44 31/2/33
f 27/3/45 21/6/45 29/1/45
f 34/6/46 33/3/47 22/3/40
f 35/4/48 34/6/48 24/6/49
f 36/5/50 35/4/51 26/4/52
f 33/3/53 36/5/53 28/5/54
f 38/6/38 37/3/38 21/3/38
f 40/1/32 38/6/32 23/6/32
f 39/2/37 40/1/37 30/1/37
f 37/3/45 39/2/45 29/2/45
f 60/1/1 59/2/1 57/3/1
f 51/1/55 50/2/55 43/3/55
f 52/1/56 51/2/57 45/3/5
f 42/4/58 48/5/59 52/2/58
f 55/4/60 56/5/60 53/3/60
f 43/4/61 41/5/61 47/3/61
f 44/4/62 42/5/63 49/2/62
f 46/4/64 44/5/64 50/2/65
f 48/4/66 46/5/67 51/2/57
f 47/3/68 41/6/68 49/1/68
f 54/6/63 53/3/69 42/3/63
f 55/4/70 54/6/71 44/6/72
f 56/5/73 55/4/74 46/4/75
f 53/3/76 56/5/77 48/5/78
f 58/6/61 57/3/61 41/3/61
f 60/1/55 58/6/55 43/6/55
f 59/2/60 60/1/60 50/1/60
f 57/3/68 59/2/68 49/2/68
f 80/1/1 79/2/1 77/3/1
f 71/1/79 70/2/79 63/3/79
f 72/1/56 71/2/80 65/3/5
f 62/4/81 68/5/82 72/2/83
f 75/4/84 76/5/84 73/3/84
f 63/4/85 61/5/85 67/3/85
f 64/4/86 62/5/87 69/2/88
f 66/4/89 64/5/90 70/2/91
f 68/4/92 66/5/93 71/2/80
f 67/3/94 61/6/94 69/1/94
f 74/6/95 73/3/96 62/3/97
f 75/4/98 74/6/99 64/6/100
f 76/5/101 75/4/102 66/4/103
f 73/3/104 76/5/105 68/5/106
f 78/6/85 77/3/85 61/3/85
f 80/1/79 78/6/79 63/6/79
f 79/2/84 80/1/84 70/1/84
f 77/3/94 79/2/94 69/2/94
f 100/1/1 99/2/1 97/3/1
f 91/1/107 90/2/107 83/3/107
f 92/1/108 91/2/109 85/3/5
f 82/4/110 88/5/111 92/2/112
f 95/4/113 96/5/113 93/3/113
f 83/4/114 81/5/114 87/3/114
f 84/4/115 82/5/116 89/2/117
f 86/4/118 84/5/119 90/2/120
f 88/4/121 86/5/122 91/2/109
f 87/3/123 81/6/123 89/1/123
f 94/6/124 93/3/125 82/3/126
f 95/4/127 94/6/128 84/6/129
f 96/5/130 95/4/131 86/4/132
f 93/3/133 96/5/134 88/5/135
f 98/6/114 97/3/114 81/3/114
f 100/1/107 98/6/107 83/6/107
f 99/2/113 100/1/113 90/1/113
f 97/3/123 99/2/123 89/2/123
f 120/1/1 119/2/1 117/3/1
f 111/1/136 110/2/136 103/3/136
f 112/1/137 111/2/138 105/3/5
f 102/4/139 108/5/140 112/2/141
f 115/4/142 116/5/142 113/3/142
f 103/4/143 101/5/143 107/3/143
f 104/4/144 102/5/145 109/2/146
f 106/4/147 104/5/148 110/2/149
f 108/4/150 106/5/151 111/2/138
f 107/3/152 101/6/152 109/1/152
f 114/6/153 113/3/154 102/3/155
f 115/4/156 114/6/157 104/6/158
f 116/5/159 115/4/160 106/4/151
f 113/3/161 116/5/162 108/5/163
f 118/6/143 117/3/143 101/3/143
f 120/1/136 118/6/136 103/6/136
f 119/2/142 120/1/142 110/1/142
f 117/3/152 119/2/152 109/2/152
f 140/1/1 139/2/1 137/3/1
f 131/1/164 130/2/164 123/3/164
f 132/1/165 131/2/166 125/3/5
f 122/4/167 128/5/167 132/2/167
f 135/4/168 136/5/168 133/3/168
f 123/4/169 121/5/169 127/3/169
f 124/4/170 122/5/170 129/2/171
f 126/4/172 124/5/172 130/2/173
f 128/4/174 126/5/175 131/2/166
f 127/3/176 121/6/176 129/1/176
f 134/6/177 133/3/178 122/3/177
f 135/4/179 134/6/179 124/6/180
f 136/5/181 135/4/181 126/4/175
f 133/3/182 136/5/182 128/5/183
f 138/6/169 137/3/169 121/3/169
f 140/1/164 138/6/164 123/6/164
f 139/2/168 140/1/168 130/1/168
f 137/3/176 139/2/176 129/2/176
f 160/1/1 159/2/1 157/3/1
f 151/1/184 150/2/184 143/3/184
f 152/1/5 151/2/185 145/3/5
f 142/4/186 148/5/187 152/2/188
f 155/4/189 156/5/189 153/3/189
f 143/4/190 141/5/190 147/3/190
f 144/4/191 142/5/192 149/2/193
f 146/4/194 144/5/195 150/2/196
f 148/4/197 146/5/198 151/2/185
f 147/3/199 141/6/199 149/1/199
f 154/6/200 153/3/201 142/3/202
f 155/4/203 154/6/204 144/6/205
f 156/5/206 155/4/207 146/4/208
f 153/3/209 156/5/210 148/5/211
f 158/6/190 157/3/190 141/3/190
f 160/1/184 158/6/184 143/6/184
f 159/2/189 160/1/189 150/1/189
f 157/3/199 159/2/199 149/2/199
f 180/1/1 179/2/1 177/3/1
f 171/1/212 170/2/212 163/3/212
f 172/1/213 171/2/214 165/3/5
f 162/4/215 168/5/216 172/2/217
f 175/4/218 176/5/218 173/3/218
f 163/4/219 161/5/219 167/3/219
f 164/4/220 162/5/221 169/2/222
f 166/4/223 164/5/224 170/2/225
f 168/4/226 166/5/227 171/2/214
f 167/3/228 161/6/228 169/1/228
f 174/6/229 173/3/230 162/3/231
f 175/4/232 174/6/233 164/6/234
f 176/5/235 175/4/236 166/4/237
f 173/3/238 176/5/239 168/5/240
f 178/6/219 177/3/219 161/3/219
f 180/1/212 178/6/212 163/6/212
f 179/2/218 180/1/218 170/1/218
f 177/3/228 179/2/228 169/2/228
f 18/6/1 20/1/1 17/3/1
f 5/6/2 11/1/2 3/3/2
f 7/6/5 12/1/3 5/3/5
f 9/1/241 2/4/6 12/2/8
f 14/6/9 15/4/9 13/3/9
f 5/6/10 3/4/10 7/3/10
f 10/1/242 4/4/11 9/2/13
f 11/1/243 6/4/14 10/2/16
f 12/1/3 8/4/17 11/2/4
f 12/2/19 7/3/19 9/1/19
f 4/6/244 14/6/20 2/3/22
f 6/4/245 15/4/23 4/6/25
f 8/5/246 16/5/26 6/4/28
f 2/3/247 13/3/29 8/5/31
f 3/6/10 18/6/10 1/3/10
f 10/1/2 20/1/2 3/6/2
f 9/2/9 19/2/9 10/1/9
f 1/3/19 17/3/19 9/2/19
f 38/6/1 40/1/1 37/3/1
f 25/6/32 31/1/32 23/3/32
f 27/6/5 32/1/5 25/3/5
f 29/1/248 22/4/34 32/2/36
f 34/6/37 35/4/37 33/3/37
f 25/6/38 23/4/38 27/3/38
f 30/1/249 24/4/39 29/2/41
f 31/1/250 26/4/42 30/2/42
f 32/1/5 28/4/43 31/2/33
f 32/2/45 27/3/45 29/1/45
f 24/6/39 34/6/46 22/3/40
f 26/4/251 35/4/48 24/6/49
f 28/5/252 36/5/50 26/4/52
f 22/3/54 33/3/53 28/5/54
f 23/6/38 38/6/38 21/3/38
f 30/1/32 40/1/32 23/6/32
f 29/2/37 39/2/37 30/1/37
f 21/3/45 37/3/45 29/2/45
f 58/6/1 60/1/1 57/3/1
f 45/6/55 51/1/55 43/3/55
f 47/6/5 52/1/56 45/3/5
f 49/1/58 42/4/58 52/2/58
f 54/6/60 55/4/60 53/3/60
f 45/6/61 43/4/61 47/3/61
f 50/1/62 44/4/62 49/2/62
f 51/1/253 46/4/64 50/2/65
f 52/1/56 48/4/66 51/2/57
f 52/2/68 47/3/68 49/1/68
f 44/6/62 54/6/63 42/3/63
f 46/4/254 55/4/70 44/6/72
f 48/5/255 56/5/73 46/4/75
f 42/3/256 53/3/76 48/5/78
f 43/6/61 58/6/61 41/3/61
f 50/1/55 60/1/55 43/6/55
f 49/2/60 59/2/60 50/1/60
f 41/3/68 57/3/68 49/2/68
f 78/6/1 80/1/1 77/3/1
f 65/6/79 71/1/79 63/3/79
f 67/6/5 72/1/56 65/3/5
f 69/1/257 62/4/81 72/2/83
f 74/6/84 75/4/84 73/3/84
f 65/6/85 63/4/85 67/3/85
f 70/1/258 64/4/86 69/2/88
f 71/1/259 66/4/89 70/2/91
f 72/1/56 68/4/92 71/2/80
f 72/2/94 67/3/94 69/1/94
f 64/6/260 74/6/95 62/3/97
f 66/4/261 75/4/98 64/6/100
f 68/5/262 76/5/101 66/4/103
f 62/3/263 73/3/104 68/5/106
f 63/6/85 78/6/85 61/3/85
f 70/1/79 80/1/79 63/6/79
f 69/2/84 79/2/84 70/1/84
f 61/3/94 77/3/94 69/2/94
f 98/6/1 100/1/1 97/3/1
f 85/6/107 91/1/107 83/3/107
f 87/6/5 92/1/108 85/3/5
f 89/1/264 82/4/110 92/2/112
f 94/6/113 95/4/113 93/3/113
f 85/6/114 83/4/114 87/3/114
f 90/1/265 84/4/115 89/2/117
f 91/1/266 86/4/118 90/2/120
f 92/1/108 88/4/121 91/2/109
f 92/2/123 87/3/123 89/1/123
f 84/6/267 94/6/124 82/3/126
f 86/4/268 95/4/127 84/6/129
f 88/5/269 96/5/130 86/4/132
f 82/3/270 93/3/133 88/5/135
f 83/6/114 98/6/114 81/3/114
f 90/1/107 100/1/107 83/6/107
f 89/2/113 99/2/113 90/1/113
f 81/3/123 97/3/123 89/2/123
f 118/6/1 120/1/1 117/3/1
f 105/6/136 111/1/136 103/3/136
f 107/6/5 112/1/137 105/3/5
f 109/1/271 102/4/139 112/2/141
f 114/6/142 115/4/142 113/3/142
f 105/6/143 103/4/143 107/3/143
f 110/1/272 104/4/144 109/2/146
f 111/1/273 106/4/147 110/2/149
f 112/1/137 108/4/150 111/2/138
f 112/2/152 107/3/152 109/1/152
f 104/6/274 114/6/153 102/3/155
f 106/4/275 115/4/156 104/6/158
f 108/5/150 116/5/159 106/4/151
f 102/3/276 113/3/161 108/5/163
f 103/6/143 118/6/143 101/3/143
f 110/1/136 120/1/136 103/6/136
f 109/2/142 119/2/142 110/1/142
f 101/3/152 117/3/152 109/2/152
f 138/6/1 140/1/1 137/3/1
f 125/6/164 131/1/164 123/3/164
f 127/6/5 132/1/165 125/3/5
f 129/1/167 122/4/167 132/2/167
f 134/6/168 135/4/168 133/3/168
f 125/6/169 123/4/169 127/3/169
f 130/1/171 124/4/170 129/2/171
f 131/1/173 126/4/172 130/2/173
f 132/1/165 128/4/174 131/2/166
f 132/2/176 127/3/176 129/1/176
f 124/6/177 134/6/177 122/3/177
f 126/4/180 135/4/179 124/6/180
f 128/5/174 136/5/181 126/4/175
f 122/3/277 133/3/182 128/5/183
f 123/6/169 138/6/169 121/3/169
f 130/1/164 140/1/164 123/6/164
f 129/2/168 139/2/168 130/1/168
f 121/3/176 137/3/176 129/2/176
f 158/6/1 160/1/1 157/3/1
f 145/6/184 151/1/184 143/3/184
f 147/6/5 152/1/5 145/3/5
f 149/1/278 142/4/186 152/2/188
f 154/6/189 155/4/189 153/3/189
f 145/6/190 143/4/190 147/3/190
f 150/1/279 144/4/191 149/2/193
f 151/1/280 146/4/194 150/2/196
f 152/1/5 148/4/197 151/2/185
f 152/2/199 147/3/199 149/1/199
f 144/6/281 154/6/200 142/3/202
f 146/4/282 155/4/203 144/6/205
f 148/5/283 156/5/206 146/4/208
f 142/3/284 153/3/209 148/5/211
f 143/6/190 158/6/190 141/3/190
f 150/1/184 160/1/184 143/6/184
f 149/2/189 159/2/189 150/1/189
f 141/3/199 157/3/199 149/2/199
f 178/6/1 180/1/1 177/3/1
f 165/6/212 171/1/212 163/3/212
f 167/6/5 172/1/213 165/3/5
f 169/1/285 162/4/215 172/2/217
f 174/6/218 175/4/218 173/3/218
f 165/6/219 163/4/219 167/3/219
f 170/1/1 164/4/220 169/2/222
f 171/1/286 166/4/223 170/2/225
f 172/1/213 168/4/226 171/2/214
f 172/2/228 167/3/228 169/1/228
f 164/6/287 174/6/229 162/3/231
f 166/4/288 175/4/232 164/6/234
f 168/5/289 176/5/235 166/4/237
f 162/3/290 173/3/238 168/5/240
f 163/6/219 178/6/219 161/3/219
f 170/1/212 180/1/212 163/6/212
f 169/2/218 179/2/218 170/1/218
f 161/3/228 177/3/228 169/2/228
