# Blender 4.1.1
# www.blender.org
mtllib HelicopterPropeller2.mtl
o Propeller_2
v 0.000000 -0.043902 -0.000004
v -0.932400 -0.043902 -0.000004
v 1.527005 0.549589 6.627050
v -0.932400 0.477459 -0.000004
v -0.807482 -0.043902 0.466196
v 2.068811 0.549589 6.585070
v -0.807482 0.477459 0.466196
v 1.527005 0.688178 6.627050
v -0.466200 -0.043902 0.807478
v -0.466200 0.477459 0.807478
v 2.068811 0.688178 6.585070
v 0.000000 -0.043902 0.932396
v 0.000000 0.477460 0.932396
v 4.889365 0.543918 -1.648836
v 0.466200 -0.043902 0.807478
v 0.466200 0.477460 0.807478
v 4.935413 0.543918 -0.914815
v 0.807482 -0.043902 0.466196
v 0.807482 0.477460 0.466196
v 4.889365 0.693850 -1.648836
v 0.932400 -0.043902 -0.000004
v 0.932400 0.477460 -0.000004
v 4.935413 0.693850 -0.914815
v 0.807482 -0.043902 -0.466204
v 0.807482 0.477460 -0.466204
v 0.466200 -0.043902 -0.807486
v -1.869595 0.544097 -5.831330
v 0.466200 0.477460 -0.807486
v -0.000000 -0.043902 -0.932404
v -1.235592 0.544097 -5.942259
v -0.000000 0.477459 -0.932404
v -0.466200 -0.043902 -0.807486
v -1.869595 0.693668 -5.831330
v -0.466200 0.477459 -0.807486
v -0.807482 -0.043902 -0.466204
v -1.235592 0.693668 -5.942259
v -0.807482 0.477459 -0.466204
v -0.711421 0.526147 -0.000004
v -0.616109 0.526147 0.355707
v -0.616109 0.526147 -0.355714
v -0.355711 0.526147 0.616105
v -0.355711 0.526147 -0.616113
v 0.000000 0.526147 0.711417
v -0.000000 0.526147 -0.711425
v 0.355711 0.526147 0.616105
v 0.355711 0.526147 -0.616113
v 0.616109 0.526147 0.355707
v 0.616109 0.526147 -0.355715
v 0.711421 0.526147 -0.000004
v -0.711421 0.711619 -0.000004
v -0.616109 0.711619 0.355707
v -0.616109 0.711619 -0.355714
v -0.355711 0.711619 0.616105
v -0.355711 0.711619 -0.616113
v 0.000000 0.711619 0.711417
v -0.000000 0.711619 -0.711425
v 0.355711 0.711619 0.616105
v 0.355711 0.711619 -0.616113
v 0.616109 0.711619 0.355707
v 0.616109 0.711619 -0.355715
v 0.711421 0.711619 -0.000004
v -0.985318 0.757125 -0.000004
v -0.853311 0.757125 0.492655
v -0.853311 0.757125 -0.492663
v -0.492659 0.757125 0.853307
v -0.492659 0.757125 -0.853315
v 0.000000 0.757125 0.985314
v -0.000000 0.757125 -0.985322
v 0.492659 0.757125 0.853307
v 0.492659 0.757125 -0.853315
v 0.853311 0.757125 0.492655
v 0.853311 0.757125 -0.492663
v 0.985318 0.757125 -0.000004
v -0.889742 1.086154 -0.000004
v -0.770540 1.086154 0.444867
v -0.770540 1.086154 -0.444875
v -0.444871 1.086154 0.770536
v -0.444871 1.086154 -0.770543
v 0.000000 1.086154 0.889739
v -0.000000 1.086154 -0.889746
v 0.444871 1.086154 0.770536
v 0.444871 1.086154 -0.770543
v 0.770540 1.086154 0.444867
v 0.770539 1.086154 -0.444875
v 0.889742 1.086154 -0.000004
v -0.266033 1.247153 -0.000004
v -0.230391 1.247153 0.133013
v -0.230391 1.247153 -0.133020
v -0.133017 1.247153 0.230387
v -0.133017 1.247153 -0.230395
v -0.000000 1.247153 0.266029
v -0.000000 1.247153 -0.266037
v 0.133016 1.247153 0.230387
v 0.133016 1.247153 -0.230395
v 0.230391 1.247153 0.133013
v 0.230391 1.247153 -0.133020
v 0.266033 1.247153 -0.000004
v -20.736675 0.594937 5.493560
v -20.623068 0.594937 5.917547
v -20.736675 0.642826 5.493560
v -20.623068 0.642826 5.917547
v -5.717834 0.594938 -20.607101
v -5.174646 0.594938 -20.752649
v -5.717834 0.642827 -20.607101
v -5.174646 0.642827 -20.752649
v 5.621919 0.606131 20.961596
v 5.789196 0.606131 20.916775
v 5.621919 0.631638 20.961596
v 5.789196 0.631638 20.916775
v 20.894367 0.610951 -5.613521
v 20.984011 0.610951 -5.278967
v 20.894367 0.626818 -5.613521
v 20.984011 0.626818 -5.278967
v -5.864965 0.468631 1.227419
v -5.710560 0.468631 1.958399
v -5.864965 0.769135 1.227419
v -5.710560 0.769135 1.958398
vn -0.0000 -1.0000 -0.0000
vn -0.9659 -0.0000 0.2588
vn -0.7071 -0.0000 0.7071
vn 0.2588 -0.0000 -0.9659
vn -0.2588 -0.0000 0.9659
vn 0.2588 -0.0000 0.9659
vn -0.2588 -0.0000 -0.9659
vn 0.7071 -0.0000 0.7071
vn 0.9659 -0.0000 0.2588
vn -0.7071 -0.0000 -0.7071
vn 0.9659 -0.0000 -0.2588
vn 0.7071 -0.0000 -0.7071
vn -0.9659 -0.0000 -0.2588
vn -0.2148 0.9750 0.0576
vn -0.2148 0.9750 -0.0576
vn -0.1573 0.9750 0.1573
vn -0.1573 0.9750 -0.1573
vn -0.0576 0.9750 0.2148
vn -0.0576 0.9750 -0.2148
vn 0.0576 0.9750 0.2148
vn 0.0576 0.9750 -0.2148
vn 0.1573 0.9750 0.1573
vn 0.1573 0.9750 -0.1573
vn 0.2148 0.9750 0.0576
vn 0.2148 0.9750 -0.0576
vn -0.1637 -0.9855 0.0439
vn -0.1637 -0.9855 -0.0439
vn -0.1199 -0.9855 0.1199
vn -0.1199 -0.9855 -0.1199
vn -0.0439 -0.9855 0.1637
vn -0.0439 -0.9855 -0.1637
vn 0.0439 -0.9855 0.1637
vn 0.0439 -0.9855 -0.1637
vn 0.1199 -0.9855 0.1199
vn 0.1199 -0.9855 -0.1199
vn 0.1637 -0.9855 0.0439
vn 0.1637 -0.9855 -0.0439
vn -0.9300 0.2701 0.2492
vn -0.9300 0.2701 -0.2492
vn -0.6808 0.2701 0.6808
vn -0.6808 0.2701 -0.6808
vn -0.2492 0.2701 0.9300
vn -0.2492 0.2701 -0.9300
vn 0.2492 0.2701 0.9300
vn 0.2492 0.2701 -0.9300
vn 0.6808 0.2701 0.6808
vn 0.6808 0.2701 -0.6808
vn 0.9300 0.2701 0.2492
vn 0.9300 0.2701 -0.2492
vn -0.2494 0.9661 0.0668
vn -0.2494 0.9661 -0.0668
vn -0.1826 0.9661 0.1826
vn -0.1826 0.9661 -0.1826
vn -0.0668 0.9661 0.2494
vn -0.0668 0.9661 -0.2494
vn 0.0668 0.9661 0.2494
vn 0.0668 0.9661 -0.2494
vn 0.1826 0.9661 0.1826
vn 0.1826 0.9661 -0.1826
vn 0.2494 0.9661 0.0668
vn 0.2494 0.9661 -0.0668
vn -0.0000 1.0000 -0.0000
vn 0.0105 -0.9999 -0.0026
vn 0.0106 -0.9999 -0.0022
vn 0.0106 -0.9999 -0.0024
vn 0.3001 -0.0000 0.9539
vn -0.0080 1.0000 0.0016
vn -0.0079 1.0000 0.0021
vn -0.0080 1.0000 0.0017
vn -0.2757 -0.0000 -0.9612
vn -0.0005 -1.0000 -0.0033
vn -0.0009 -1.0000 -0.0032
vn -0.0006 -1.0000 -0.0033
vn -0.9604 -0.0000 0.2788
vn -0.0006 1.0000 -0.0033
vn -0.0004 1.0000 -0.0033
vn 0.9664 -0.0000 -0.2570
vn 0.0006 -1.0000 0.0038
vn 0.0005 -1.0000 0.0038
vn 0.9612 -0.0000 -0.2759
vn 0.0006 1.0000 0.0038
vn 0.0010 1.0000 0.0037
vn 0.0009 1.0000 0.0037
vn -0.9615 -0.0000 0.2747
vn 0.0041 -1.0000 -0.0005
vn 0.0039 -1.0000 -0.0010
vn 0.0040 -1.0000 -0.0006
vn -0.2896 -0.0000 -0.9571
vn 0.0040 1.0000 -0.0008
vn 0.0040 1.0000 -0.0005
vn 0.2624 -0.0000 0.9650
vn -0.0080 -1.0000 0.0018
vn -0.0079 -1.0000 0.0021
vn -0.0079 -1.0000 0.0020
vn 0.2566 -0.0000 0.9665
vn 0.0106 0.9999 -0.0023
vn 0.0105 0.9999 -0.0028
vn 0.0105 0.9999 -0.0026
vn -0.2317 -0.0000 -0.9728
vn 0.0003 -1.0000 0.0039
vn 0.0010 -1.0000 0.0037
vn 0.9679 -0.0000 -0.2513
vn 0.0005 1.0000 0.0038
vn 0.0008 1.0000 0.0038
vn -0.9683 -0.0000 0.2499
vn 0.0038 -1.0000 -0.0010
vn 0.0040 -1.0000 -0.0007
vn -0.2404 -0.0000 -0.9707
vn 0.0040 1.0000 -0.0006
vn 0.0039 1.0000 -0.0011
vn 0.2117 -0.0000 0.9773
vn -0.0008 -1.0000 -0.0032
vn -0.9677 -0.0000 0.2520
vn -0.0005 1.0000 -0.0033
vn -0.0009 1.0000 -0.0032
vn 0.9732 -0.0000 -0.2299
vn 0.0104 -0.9999 -0.0028
vn 0.0010 -1.0000 0.0036
vn 0.0040 1.0000 -0.0011
vn -0.0080 -1.0000 0.0017
vn 0.0106 0.9999 -0.0022
vt 0.876642 0.029888
vt 0.878053 0.035154
vt 0.867521 0.035154
vt 0.090726 0.692234
vt 0.094477 0.692234
vt 0.094477 0.737240
vt 0.867521 0.045685
vt 0.862255 0.044274
vt 0.872787 0.026033
vt 0.086976 0.692234
vt 0.090726 0.737240
vt 0.060722 0.692234
vt 0.064472 0.692234
vt 0.064472 0.737240
vt 0.867521 0.024622
vt 0.083225 0.692234
vt 0.086976 0.737240
vt 0.872787 0.044274
vt 0.862255 0.026033
vt 0.079474 0.692234
vt 0.083225 0.737240
vt 0.056971 0.692234
vt 0.060722 0.737240
vt 0.858400 0.029888
vt 0.075724 0.692234
vt 0.079474 0.737240
vt 0.876642 0.040419
vt 0.856989 0.035154
vt 0.071973 0.692234
vt 0.075724 0.737240
vt 0.053221 0.692234
vt 0.056971 0.737240
vt 0.858400 0.040419
vt 0.068223 0.692234
vt 0.071973 0.737240
vt 0.068223 0.737240
vt 0.049470 0.692234
vt 0.053221 0.737240
vt 0.049470 0.737240
vt 0.856989 0.045685
vt 0.856989 0.024622
vt 0.878053 0.024622
vt 0.058470 0.743240
vt 0.058470 0.698234
vt 0.103477 0.698234
vt 0.080973 0.698234
vt 0.069722 0.701249
vt 0.061485 0.709485
vt 0.100462 0.709485
vt 0.092225 0.701249
vt 0.100462 0.731989
vt 0.069722 0.740226
vt 0.092225 0.740226
vt 0.103477 0.720737
vt 0.080973 0.743240
vt 0.058470 0.720737
vt 0.061485 0.731989
vt 0.864355 0.039046
vt 0.875876 0.039046
vt 0.872661 0.045685
vt 0.872661 0.024622
vt 0.865413 0.049897
vt 0.865413 0.028834
vt 0.881085 0.028834
vt 0.878053 0.045685
vt 0.872556 0.024622
vt 0.872556 0.045685
vt 0.871879 0.045685
vt 0.871879 0.024622
vt 0.873639 0.024622
vt 0.873639 0.045685
vt 0.886477 0.028834
vt 0.103477 0.743240
s 1
usemtl Palette
f 5/1/1 2/2/1 1/3/1
f 7/4/2 4/5/2 2/6/2
f 29/7/1 26/8/1 1/3/1
f 9/9/1 5/1/1 1/3/1
f 10/10/3 7/4/3 5/11/3
f 31/12/4 28/13/4 26/14/4
f 12/15/1 9/9/1 1/3/1
f 13/16/5 10/10/5 9/17/5
f 32/18/1 29/7/1 1/3/1
f 15/19/1 12/15/1 1/3/1
f 16/20/6 13/16/6 12/21/6
f 34/22/7 31/12/7 29/23/7
f 18/24/1 15/19/1 1/3/1
f 19/25/8 16/20/8 15/26/8
f 35/27/1 32/18/1 1/3/1
f 21/28/1 18/24/1 1/3/1
f 22/29/9 19/25/9 18/30/9
f 37/31/10 34/22/10 32/32/10
f 24/33/1 21/28/1 1/3/1
f 25/34/11 22/29/11 21/35/11
f 2/2/1 35/27/1 1/3/1
f 26/8/1 24/33/1 1/3/1
f 28/13/12 25/34/12 24/36/12
f 4/37/13 37/31/13 35/38/13
f 39/39/14 38/37/14 4/5/14
f 38/39/15 40/37/15 37/5/15
f 41/39/16 39/37/16 7/5/16
f 40/39/17 42/37/17 34/5/17
f 43/39/18 41/37/18 10/5/18
f 42/39/19 44/37/19 31/5/19
f 45/39/20 43/37/20 13/5/20
f 44/39/21 46/37/21 28/5/21
f 47/39/22 45/37/22 16/5/22
f 46/39/23 48/37/23 25/5/23
f 49/39/24 47/37/24 19/5/24
f 48/39/25 49/37/25 22/5/25
f 101/40/2 100/41/2 98/42/2
f 50/40/13 52/41/13 40/42/13
f 53/40/3 51/41/3 39/42/3
f 52/40/10 54/41/10 42/42/10
f 55/40/5 53/41/5 41/42/5
f 104/40/7 105/41/7 103/42/7
f 109/40/6 108/41/6 106/42/6
f 56/40/4 58/41/4 46/42/4
f 59/40/8 57/41/8 45/42/8
f 58/40/12 60/41/12 48/42/12
f 61/40/9 59/41/9 47/42/9
f 112/40/11 113/41/11 111/42/11
f 63/40/26 62/41/26 50/42/26
f 62/40/27 64/41/27 52/42/27
f 65/40/28 63/41/28 51/42/28
f 64/40/29 66/41/29 54/42/29
f 67/40/30 65/41/30 53/42/30
f 66/40/31 68/41/31 56/42/31
f 69/40/32 67/41/32 55/42/32
f 68/40/33 70/41/33 58/42/33
f 71/40/34 69/41/34 57/42/34
f 70/40/35 72/41/35 60/42/35
f 73/40/36 71/41/36 59/42/36
f 72/40/37 73/41/37 61/42/37
f 75/43/38 74/44/38 62/45/38
f 74/43/39 76/44/39 64/45/39
f 77/43/40 75/44/40 63/45/40
f 76/43/41 78/44/41 66/45/41
f 79/43/42 77/44/42 65/45/42
f 78/43/43 80/44/43 68/45/43
f 81/43/44 79/44/44 67/45/44
f 80/43/45 82/44/45 70/45/45
f 83/43/46 81/44/46 69/45/46
f 82/43/47 84/44/47 72/45/47
f 85/43/48 83/44/48 71/45/48
f 84/43/49 85/44/49 73/45/49
f 87/43/50 86/44/50 74/45/50
f 86/43/51 88/44/51 76/45/51
f 89/43/52 87/44/52 75/45/52
f 88/43/53 90/44/53 78/45/53
f 91/43/54 89/44/54 77/45/54
f 90/43/55 92/44/55 80/45/55
f 93/43/56 91/44/56 79/45/56
f 92/43/57 94/44/57 82/45/57
f 95/43/58 93/44/58 81/45/58
f 94/43/59 96/44/59 84/45/59
f 97/43/60 95/44/60 83/45/60
f 96/43/61 97/44/61 85/45/61
f 92/46/62 90/47/62 88/48/62
f 96/49/62 94/50/62 92/46/62
f 95/51/62 96/49/62 92/46/62
f 89/52/62 93/53/62 92/46/62
f 95/51/62 97/54/62 96/49/62
f 89/52/62 91/55/62 93/53/62
f 86/56/62 87/57/62 89/52/62
f 115/58/63 114/59/64 38/59/65
f 117/60/66 115/61/66 39/42/66
f 100/62/67 101/63/68 117/64/69
f 98/65/70 100/40/70 116/40/70
f 102/40/71 103/41/72 30/66/73
f 33/67/74 27/66/74 42/42/74
f 36/67/75 33/66/75 54/42/76
f 103/40/77 105/41/77 36/66/77
f 6/68/78 3/69/78 43/42/79
f 11/68/80 6/69/80 45/42/80
f 108/40/81 109/41/82 11/69/83
f 106/40/84 108/41/84 8/69/84
f 110/40/85 111/41/86 17/70/87
f 20/71/88 14/70/88 48/42/88
f 23/71/89 20/70/89 60/42/90
f 111/40/91 113/41/91 23/70/91
f 99/40/92 98/65/93 114/65/94
f 101/40/95 99/41/95 115/61/95
f 51/72/96 50/62/97 116/62/98
f 50/40/99 38/65/99 114/65/99
f 107/40/100 106/41/101 3/69/78
f 109/40/102 107/41/102 6/69/102
f 57/42/103 55/65/82 8/68/104
f 55/42/105 43/65/105 3/68/105
f 49/42/85 48/65/106 14/71/107
f 112/40/108 110/41/108 14/70/108
f 113/40/109 112/41/110 20/70/89
f 61/42/111 49/65/111 17/71/111
f 44/42/112 42/65/72 27/67/73
f 104/40/113 102/41/113 27/66/113
f 105/40/114 104/41/115 33/66/75
f 56/42/116 44/65/116 30/67/116
f 5/11/2 7/4/2 2/6/2
f 9/17/3 10/10/3 5/11/3
f 29/23/4 31/12/4 26/14/4
f 12/21/5 13/16/5 9/17/5
f 15/26/6 16/20/6 12/21/6
f 32/32/7 34/22/7 29/23/7
f 18/30/8 19/25/8 15/26/8
f 21/35/9 22/29/9 18/30/9
f 35/38/10 37/31/10 32/32/10
f 24/36/11 25/34/11 21/35/11
f 26/14/12 28/13/12 24/36/12
f 2/39/13 4/37/13 35/38/13
f 7/6/14 39/39/14 4/5/14
f 4/6/15 38/39/15 37/5/15
f 10/6/16 41/39/16 7/5/16
f 37/6/17 40/39/17 34/5/17
f 13/6/18 43/39/18 10/5/18
f 34/6/19 42/39/19 31/5/19
f 16/6/20 45/39/20 13/5/20
f 31/6/21 44/39/21 28/5/21
f 19/6/22 47/39/22 16/5/22
f 28/6/23 46/39/23 25/5/23
f 22/6/24 49/39/24 19/5/24
f 25/6/25 48/39/25 22/5/25
f 99/65/2 101/40/2 98/42/2
f 38/65/13 50/40/13 40/42/13
f 41/65/3 53/40/3 39/42/3
f 40/65/10 52/40/10 42/42/10
f 43/65/5 55/40/5 41/42/5
f 102/65/7 104/40/7 103/42/7
f 107/65/6 109/40/6 106/42/6
f 44/65/4 56/40/4 46/42/4
f 47/65/8 59/40/8 45/42/8
f 46/65/12 58/40/12 48/42/12
f 49/65/9 61/40/9 47/42/9
f 110/65/11 112/40/11 111/42/11
f 51/65/26 63/40/26 50/42/26
f 50/65/27 62/40/27 52/42/27
f 53/65/28 65/40/28 51/42/28
f 52/65/29 64/40/29 54/42/29
f 55/65/30 67/40/30 53/42/30
f 54/65/31 66/40/31 56/42/31
f 57/65/32 69/40/32 55/42/32
f 56/65/33 68/40/33 58/42/33
f 59/65/34 71/40/34 57/42/34
f 58/65/35 70/40/35 60/42/35
f 61/65/36 73/40/36 59/42/36
f 60/65/37 72/40/37 61/42/37
f 63/73/38 75/43/38 62/45/38
f 62/73/39 74/43/39 64/45/39
f 65/73/40 77/43/40 63/45/40
f 64/73/41 76/43/41 66/45/41
f 67/73/42 79/43/42 65/45/42
f 66/73/43 78/43/43 68/45/43
f 69/73/44 81/43/44 67/45/44
f 68/73/45 80/43/45 70/45/45
f 71/73/46 83/43/46 69/45/46
f 70/73/47 82/43/47 72/45/47
f 73/73/48 85/43/48 71/45/48
f 72/73/49 84/43/49 73/45/49
f 75/73/50 87/43/50 74/45/50
f 74/73/51 86/43/51 76/45/51
f 77/73/52 89/43/52 75/45/52
f 76/73/53 88/43/53 78/45/53
f 79/73/54 91/43/54 77/45/54
f 78/73/55 90/43/55 80/45/55
f 81/73/56 93/43/56 79/45/56
f 80/73/57 92/43/57 82/45/57
f 83/73/58 95/43/58 81/45/58
f 82/73/59 94/43/59 84/45/59
f 85/73/60 97/43/60 83/45/60
f 84/73/61 96/43/61 85/45/61
f 86/56/62 92/46/62 88/48/62
f 93/53/62 95/51/62 92/46/62
f 86/56/62 89/52/62 92/46/62
f 39/59/117 115/58/63 38/59/65
f 51/65/66 117/60/66 39/42/66
f 116/62/69 100/62/67 117/64/69
f 114/65/70 98/65/70 116/40/70
f 27/67/73 102/40/71 30/66/73
f 54/65/74 33/67/74 42/42/74
f 56/65/115 36/67/75 54/42/76
f 30/67/77 103/40/77 36/66/77
f 45/65/118 6/68/78 43/42/79
f 57/65/80 11/68/80 45/42/80
f 8/68/104 108/40/81 11/69/83
f 3/68/84 106/40/84 8/69/84
f 14/71/107 110/40/85 17/70/87
f 60/65/88 20/71/88 48/42/88
f 61/65/119 23/71/89 60/42/90
f 17/71/91 111/40/91 23/70/91
f 115/60/120 99/40/92 114/65/94
f 117/60/95 101/40/95 115/61/95
f 117/64/121 51/72/96 116/62/98
f 116/40/99 50/40/99 114/65/99
f 6/68/78 107/40/100 3/69/78
f 11/68/102 109/40/102 6/69/102
f 11/69/83 57/42/103 8/68/104
f 8/69/105 55/42/105 3/68/105
f 17/70/87 49/42/85 14/71/107
f 20/71/108 112/40/108 14/70/108
f 23/71/89 113/40/109 20/70/89
f 23/70/111 61/42/111 17/71/111
f 30/66/73 44/42/112 27/67/73
f 33/67/113 104/40/113 27/66/113
f 36/67/75 105/40/114 33/66/75
f 36/66/116 56/42/116 30/67/116
